<svg width="32" height="32" viewBox="0 0 32 32" fill="none" xmlns="http://www.w3.org/2000/svg">
<mask id="mask0_11_1498" style="mask-type:alpha" maskUnits="userSpaceOnUse" x="0" y="0" width="32" height="32">
<rect width="32" height="32" fill="#D9D9D9"/>
</mask>
<g mask="url(#mask0_11_1498)">
<path d="M16 16.8333L17.7 17.8667C17.9444 18.0222 18.1833 18.0111 18.4167 17.8333C18.65 17.6556 18.7333 17.4222 18.6667 17.1333L18.2333 15.2L19.7 13.9333C19.9222 13.7333 19.9944 13.5 19.9167 13.2333C19.8389 12.9667 19.6444 12.8111 19.3333 12.7667L17.4 12.6L16.6 10.7667C16.4889 10.5 16.2889 10.3667 16 10.3667C15.7111 10.3667 15.5111 10.5 15.4 10.7667L14.6 12.6L12.6667 12.7667C12.3555 12.8111 12.1611 12.9667 12.0833 13.2333C12.0055 13.5 12.0778 13.7333 12.3 13.9333L13.7667 15.2L13.3333 17.1333C13.2667 17.4222 13.35 17.6556 13.5833 17.8333C13.8167 18.0111 14.0555 18.0222 14.3 17.8667L16 16.8333ZM16 24L10.4 26.4C9.5111 26.7778 8.66666 26.7056 7.86666 26.1833C7.06666 25.6611 6.66666 24.9222 6.66666 23.9667V6.66667C6.66666 5.93333 6.92777 5.30556 7.44999 4.78333C7.97221 4.26111 8.59999 4 9.33332 4H22.6667C23.4 4 24.0278 4.26111 24.55 4.78333C25.0722 5.30556 25.3333 5.93333 25.3333 6.66667V23.9667C25.3333 24.9222 24.9333 25.6611 24.1333 26.1833C23.3333 26.7056 22.4889 26.7778 21.6 26.4L16 24Z" fill="white"/>
</g>
</svg>
