<svg width="22" height="28" viewBox="0 0 22 28" fill="none" xmlns="http://www.w3.org/2000/svg">
<path d="M9.66667 17.3334L1.76667 16.3334C1.21111 16.2667 0.849998 15.9667 0.683332 15.4334C0.516665 14.9 0.633332 14.4445 1.03333 14.0667L14.6667 1.00002C14.7778 0.888909 14.9111 0.805576 15.0667 0.75002C15.2222 0.694465 15.4333 0.666687 15.7 0.666687C16.1444 0.666687 16.4833 0.855576 16.7167 1.23335C16.95 1.61113 16.9556 2.00002 16.7333 2.40002L12.3333 10.6667L20.2333 11.6667C20.7889 11.7334 21.15 12.0334 21.3167 12.5667C21.4833 13.1 21.3667 13.5556 20.9667 13.9334L7.33333 27C7.22222 27.1111 7.08889 27.1945 6.93333 27.25C6.77778 27.3056 6.56667 27.3334 6.3 27.3334C5.85555 27.3334 5.51667 27.1445 5.28333 26.7667C5.05 26.3889 5.04444 26 5.26667 25.6L9.66667 17.3334Z" fill="white"/>
</svg>
