<svg width="1280" height="234" viewBox="0 0 1280 234" fill="none" xmlns="http://www.w3.org/2000/svg">
<path d="M115.912 198.565L155.671 205.869V27.6054L115.912 34.9091L63.8002 26.9604L181.81 0V233.474L63.7863 206.521L115.912 198.572V198.565Z" fill="#000F5B"/>
<path d="M82.9181 38.3286V112.246L138.001 112.385V46.735L82.9181 38.3286Z" fill="#FF3C00"/>
<path d="M0 25.6772V111.525L73.0302 112.163V36.8234L0 25.6772Z" fill="#FF3C00"/>
<path d="M82.9181 121.228V195.145L138.001 186.732V121.089L82.9181 121.228Z" fill="#FF3C00"/>
<path d="M0 119.882V207.797L74.5743 196.415V120.534L11.8474 119.986L0 119.882Z" fill="#FF3C00"/>
<path d="M194.205 190.991L194.039 42.4832H195.541L208.49 155.43H209.383L223.224 42.4832H245.777L260.068 155.43H260.962L273.688 42.4832H292.668L274.803 190.991H249.571L234.836 76.0329H233.943L219.43 190.991H194.198H194.205Z" fill="#000F5B"/>
<path d="M301.372 190.991V42.4832H321.466V190.991H301.372Z" fill="#000F5B"/>
<path d="M385.328 190.991L351.393 76.0329H350.499C350.943 86.9918 351.171 97.5068 351.171 107.342V190.991H333.535V42.4832H359.882L390.916 149.166H391.81C391.366 135.079 391.138 122.997 391.138 113.155V42.4832H408.774V190.991H385.328Z" fill="#000F5B"/>
<path d="M421.051 190.991V42.4832H457.666C479.768 42.4832 491.38 54.115 491.38 76.7057V154.764C491.38 179.366 479.768 190.998 457.666 190.998H421.051V190.991ZM456.33 172.874C468.385 172.874 471.515 163.926 471.515 149.166V83.8567C471.515 69.5407 468.392 60.5932 455.215 60.5932H440.702V172.867H456.33V172.874Z" fill="#000F5B"/>
<path d="M599.427 190.991L581.562 42.4832H600.763L613.712 155.43H614.605L628.447 42.4832H650.999L665.291 155.43H666.184L678.911 42.4832H697.89L680.025 190.991H654.793L640.059 76.0329H639.165L624.652 190.991H599.42H599.427Z" fill="#000F5B"/>
<path d="M571.237 155.208C571.237 180.032 558.732 192.336 536.408 192.336C514.085 192.336 500.908 178.915 500.908 154.764V79.3899C500.908 55.2317 513.856 41.1446 536.187 41.1446C558.518 41.1446 571.244 55.6825 571.244 79.8407V155.215L571.237 155.208ZM551.586 78.0443C551.586 66.4125 546.006 59.9274 535.958 59.9274C525.911 59.9274 520.773 66.1906 520.773 77.8223V156.102C520.773 167.734 526.133 173.769 536.18 173.769C546.227 173.769 551.586 168.178 551.586 156.324V78.0443Z" fill="#000F5B"/>
<path d="M793.702 86.319V77.8223C793.702 66.8634 789.014 59.9274 777.852 59.9274C766.69 59.9274 762.224 66.6345 762.224 75.36V81.1724C762.224 87.6576 764.011 91.4586 770.935 97.049C780.982 104.88 796.167 112.926 804.428 120.313C811.352 126.354 815.146 133.512 815.146 147.155V156.324C815.146 179.588 804.206 192.336 778.302 192.336C752.399 192.336 741.687 179.366 741.687 154.986V146.489H760.666V155.215C760.666 167.29 765.804 173.775 777.859 173.775C788.356 173.775 794.159 168.629 794.159 156.775V150.068C794.159 140.899 791.929 137.098 784.555 131.278C774.286 122.782 762.896 117.191 753.742 108.244C746.375 100.642 742.352 92.8111 742.352 80.9574V74.4722C742.352 54.7878 753.07 41.1446 777.631 41.1446C804.649 41.1446 812.46 57.472 812.46 79.8407V86.3259H793.702V86.319Z" fill="#000F5B"/>
<path d="M895.738 155.208C895.738 180.032 883.233 192.336 860.909 192.336C838.585 192.336 825.408 178.915 825.408 154.764V79.3899C825.408 55.2317 838.356 41.1446 860.687 41.1446C883.018 41.1446 895.745 55.6825 895.745 79.8407V155.215L895.738 155.208ZM876.087 78.0443C876.087 66.4125 870.506 59.9274 860.459 59.9274C850.412 59.9274 845.274 66.1906 845.274 77.8223V156.102C845.274 167.734 850.633 173.769 860.68 173.769C870.727 173.769 876.087 168.178 876.087 156.324V78.0443Z" fill="#000F5B"/>
<path d="M907.121 190.991V42.4832H927.216V172.652H963.831V190.991H907.121Z" fill="#000F5B"/>
<path d="M1018.76 42.4832H1038.41V154.757C1038.41 178.915 1026.58 192.329 1003.58 192.329C980.588 192.329 968.526 180.025 968.526 155.201V42.4832H988.177V156.324C988.177 168.178 993.536 173.769 1003.36 173.769C1013.19 173.769 1018.77 167.727 1018.77 156.102V42.4832H1018.76Z" fill="#000F5B"/>
<path d="M1073.69 190.991V60.6002H1048.91V42.4832H1118.8V60.6002H1093.56V190.991H1073.69Z" fill="#000F5B"/>
<path d="M1193.36 155.208C1193.36 180.032 1180.86 192.336 1158.53 192.336C1136.21 192.336 1123.03 178.915 1123.03 154.764V79.3899C1123.03 55.2317 1135.98 41.1446 1158.31 41.1446C1180.64 41.1446 1193.37 55.6825 1193.37 79.8407V155.215L1193.36 155.208ZM1173.71 78.0443C1173.71 66.4125 1168.13 59.9274 1158.08 59.9274C1148.04 59.9274 1142.9 66.1906 1142.9 77.8223V156.102C1142.9 167.734 1148.26 173.769 1158.31 173.769C1168.35 173.769 1173.71 168.178 1173.71 156.324V78.0443Z" fill="#000F5B"/>
<path d="M1256.55 190.991L1222.62 76.0329H1221.73C1222.17 86.9918 1222.4 97.5068 1222.4 107.342V190.991H1204.76V42.4832H1231.11L1262.14 149.166H1263.04C1262.59 135.079 1262.36 122.997 1262.36 113.155V42.4832H1280V190.991H1256.55Z" fill="#000F5B"/>
</svg>
