<svg width="32" height="32" viewBox="0 0 32 32" fill="none" xmlns="http://www.w3.org/2000/svg">
<mask id="mask0_11_1516" style="mask-type:alpha" maskUnits="userSpaceOnUse" x="0" y="0" width="32" height="32">
<rect width="32" height="32" fill="#D9D9D9"/>
</mask>
<g mask="url(#mask0_11_1516)">
<path d="M16 29.3334C14.8888 29.3334 13.8888 29.2278 13 29.0167C12.1111 28.8056 11.2555 28.5111 10.4333 28.1334C10.0777 27.9556 9.83329 27.6834 9.69996 27.3167C9.56663 26.95 9.58885 26.6 9.76663 26.2667C9.9444 25.9334 10.2222 25.7278 10.6 25.65C10.9777 25.5722 11.3444 25.6111 11.7 25.7667C12.3666 26.0556 13.0555 26.2778 13.7666 26.4334C14.4777 26.5889 15.2222 26.6667 16 26.6667C16.7777 26.6667 17.5222 26.5889 18.2333 26.4334C18.9444 26.2778 19.6333 26.0556 20.3 25.7667C20.6555 25.6111 21.0222 25.5722 21.4 25.65C21.7777 25.7278 22.0555 25.9334 22.2333 26.2667C22.4111 26.6 22.4333 26.95 22.3 27.3167C22.1666 27.6834 21.9222 27.9556 21.5666 28.1334C20.7444 28.5111 19.8888 28.8056 19 29.0167C18.1111 29.2278 17.1111 29.3334 16 29.3334ZM5.33329 16C5.33329 16.7778 5.41107 17.5222 5.56663 18.2334C5.72218 18.9445 5.9444 19.6334 6.23329 20.3C6.38885 20.6556 6.42774 21.0222 6.34996 21.4C6.27218 21.7778 6.06663 22.0556 5.73329 22.2334C5.39996 22.4111 5.04996 22.4334 4.68329 22.3C4.31663 22.1667 4.0444 21.9222 3.86663 21.5667C3.48885 20.7445 3.1944 19.8889 2.98329 19C2.77218 18.1111 2.66663 17.1111 2.66663 16C2.66663 14.8889 2.77218 13.8889 2.98329 13C3.1944 12.1111 3.48885 11.2556 3.86663 10.4334C4.0444 10.0778 4.31663 9.83335 4.68329 9.70002C5.04996 9.56669 5.39996 9.58891 5.73329 9.76669C6.06663 9.94446 6.27218 10.2222 6.34996 10.6C6.42774 10.9778 6.38885 11.3445 6.23329 11.7C5.9444 12.3667 5.72218 13.0556 5.56663 13.7667C5.41107 14.4778 5.33329 15.2222 5.33329 16ZM26.6666 16C26.6666 15.2222 26.5888 14.4778 26.4333 13.7667C26.2777 13.0556 26.0555 12.3667 25.7666 11.7C25.6111 11.3445 25.5722 10.9778 25.65 10.6C25.7277 10.2222 25.9333 9.94446 26.2666 9.76669C26.6 9.58891 26.95 9.56669 27.3166 9.70002C27.6833 9.83335 27.9555 10.0778 28.1333 10.4334C28.5111 11.2556 28.8055 12.1111 29.0166 13C29.2277 13.8889 29.3333 14.8889 29.3333 16C29.3333 17.1111 29.2277 18.1111 29.0166 19C28.8055 19.8889 28.5111 20.7445 28.1333 21.5667C27.9555 21.9222 27.6833 22.1667 27.3166 22.3C26.95 22.4334 26.6 22.4111 26.2666 22.2334C25.9333 22.0556 25.7277 21.7778 25.65 21.4C25.5722 21.0222 25.6111 20.6556 25.7666 20.3C26.0555 19.6334 26.2777 18.9445 26.4333 18.2334C26.5888 17.5222 26.6666 16.7778 26.6666 16ZM16 5.33335C15.2222 5.33335 14.4777 5.41113 13.7666 5.56669C13.0555 5.72224 12.3666 5.94446 11.7 6.23335C11.3444 6.38891 10.9777 6.4278 10.6 6.35002C10.2222 6.27224 9.9444 6.06669 9.76663 5.73335C9.58885 5.40002 9.56663 5.05002 9.69996 4.68335C9.83329 4.31669 10.0777 4.04446 10.4333 3.86669C11.2555 3.48891 12.1111 3.19446 13 2.98335C13.8888 2.77224 14.8888 2.66669 16 2.66669C17.1111 2.66669 18.1111 2.77224 19 2.98335C19.8888 3.19446 20.7444 3.48891 21.5666 3.86669C21.9222 4.04446 22.1666 4.31669 22.3 4.68335C22.4333 5.05002 22.4111 5.40002 22.2333 5.73335C22.0555 6.06669 21.7777 6.27224 21.4 6.35002C21.0222 6.4278 20.6555 6.38891 20.3 6.23335C19.6333 5.94446 18.9444 5.72224 18.2333 5.56669C17.5222 5.41113 16.7777 5.33335 16 5.33335ZM17.3 24C16.4333 24 15.6555 23.7334 14.9666 23.2C14.2777 22.6667 13.7777 21.9778 13.4666 21.1334C13.4 20.9556 13.3277 20.7834 13.25 20.6167C13.1722 20.45 13.0666 20.3 12.9333 20.1667L11.2666 18.4667C10.6888 17.8889 10.2222 17.2222 9.86663 16.4667C9.51107 15.7111 9.33329 14.9111 9.33329 14.0667C9.33329 12.4 9.91663 10.9722 11.0833 9.78335C12.25 8.59446 13.6666 8.00002 15.3333 8.00002C16.4888 8.00002 17.55 8.30558 18.5166 8.91669C19.4833 9.5278 20.2222 10.3556 20.7333 11.4C20.9555 11.8445 20.9388 12.2778 20.6833 12.7C20.4277 13.1222 20.0444 13.3334 19.5333 13.3334C19.2666 13.3334 19.0277 13.2611 18.8166 13.1167C18.6055 12.9722 18.4444 12.7778 18.3333 12.5334C18.0444 11.9556 17.6333 11.5 17.1 11.1667C16.5666 10.8334 15.9777 10.6667 15.3333 10.6667C14.4 10.6667 13.6111 10.9889 12.9666 11.6334C12.3222 12.2778 12 13.0667 12 14C12 14.4667 12.0833 14.9111 12.25 15.3334C12.4166 15.7556 12.6666 16.1334 13 16.4667L14.8333 18.2667C15.1444 18.5778 15.3944 18.9167 15.5833 19.2834C15.7722 19.65 15.9333 20.0334 16.0666 20.4334C16.1777 20.7 16.3444 20.9167 16.5666 21.0834C16.7888 21.25 17.0444 21.3334 17.3333 21.3334C17.5777 21.3334 17.8055 21.2722 18.0166 21.15C18.2277 21.0278 18.3888 20.8556 18.5 20.6334C18.6111 20.4334 18.7666 20.2778 18.9666 20.1667C19.1666 20.0556 19.3888 20 19.6333 20C20.1444 20 20.5333 20.2111 20.8 20.6334C21.0666 21.0556 21.0777 21.4889 20.8333 21.9334C20.4777 22.5778 19.9833 23.0834 19.35 23.45C18.7166 23.8167 18.0333 24 17.3 24ZM18 18.6667C18.5555 18.6667 19.0277 18.4722 19.4166 18.0834C19.8055 17.6945 20 17.2222 20 16.6667C20 16.1111 19.8055 15.6389 19.4166 15.25C19.0277 14.8611 18.5555 14.6667 18 14.6667C17.4444 14.6667 16.9722 14.8611 16.5833 15.25C16.1944 15.6389 16 16.1111 16 16.6667C16 17.2222 16.1944 17.6945 16.5833 18.0834C16.9722 18.4722 17.4444 18.6667 18 18.6667Z" fill="white"/>
</g>
</svg>
