<svg width="22" height="25" viewBox="0 0 22 25" fill="none" xmlns="http://www.w3.org/2000/svg">
<path d="M6.26665 18.3334H15.7333C16.0444 18.3334 16.3222 18.2389 16.5666 18.05C16.8111 17.8611 16.9667 17.6111 17.0333 17.3L19.4667 7.10003C19.5111 6.85558 19.5055 6.62225 19.45 6.40003C19.3944 6.1778 19.2778 5.9778 19.1 5.80002L13.4667 0.600025C13.2444 0.400025 13 0.361136 12.7333 0.483359C12.4667 0.605581 12.3333 0.811136 12.3333 1.10003V6.73336C12.6444 6.95558 12.8889 7.23336 13.0666 7.56669C13.2444 7.90003 13.3333 8.26669 13.3333 8.66669C13.3333 9.31114 13.1055 9.86114 12.65 10.3167C12.1944 10.7722 11.6444 11 11 11C10.3555 11 9.80554 10.7722 9.34998 10.3167C8.89443 9.86114 8.66665 9.31114 8.66665 8.66669C8.66665 8.26669 8.75554 7.90003 8.93332 7.56669C9.11109 7.23336 9.35554 6.95558 9.66665 6.73336V1.10003C9.66665 0.811136 9.53332 0.605581 9.26665 0.483359C8.99998 0.361136 8.75554 0.400025 8.53332 0.600025L2.89998 5.80002C2.72221 5.9778 2.60554 6.1778 2.54998 6.40003C2.49443 6.62225 2.48887 6.85558 2.53332 7.10003L4.96665 17.3C5.03332 17.6111 5.18887 17.8611 5.43332 18.05C5.67776 18.2389 5.95554 18.3334 6.26665 18.3334ZM2.16665 25C1.72221 25 1.36109 24.8167 1.08332 24.45C0.805539 24.0834 0.744428 23.6778 0.899984 23.2334L1.06665 22.8334C1.24443 22.2778 1.56665 21.8334 2.03332 21.5C2.49998 21.1667 3.02221 21 3.59998 21H18.4C18.9778 21 19.5 21.1667 19.9667 21.5C20.4333 21.8334 20.7555 22.2778 20.9333 22.8334L21.1 23.2334C21.2555 23.6778 21.1944 24.0834 20.9166 24.45C20.6389 24.8167 20.2778 25 19.8333 25H2.16665Z" fill="white"/>
</svg>
